# xmcd
#
# Track frame offsets:
#	150
#	10860
#	20002
#	32672
#	42364
#	51847
#	64502
#	76612
#	87742
#	99257
#	107120
#	121205
#	133017
#	145012
#	157475
#	166407
#	174815
#	184282
#	192867
#	201112
#	211292
#	221867
#	231332
#	244565
#	252677
#
# Disc length: 3516 seconds
# Revision: 0
# Processed by: cddbd v1.5.2PL0 Copyright (c) Steve Scherf et al.
# Submitted via: dBpowerAMP V12.0
#
DISCID=640dba19
DTITLE=Ivan Mládek - To nejlepší
DYEAR=2010
DGENRE=Country
TTITLE0=Nekupuj cukr, já jsem tvůj cukr
TTITLE1=Kaučuková Lou
TTITLE2=Slušně vychovaná (Ain't Misbehavin')
TTITLE3=Neopatrný křeček
TTITLE4=Čaj z lopuch
TTITLE5=V Mexiku v taxiku
TTITLE6=Rožnovské hodiny
TTITLE7=Ty, ty, ty
TTITLE8=Ve Špindlerově Mlýně
TTITLE9=Až půjdeš spát
TTITLE10=Kousavá deka
TTITLE11=Blues kladeče lina
TTITLE12=Jez
TTITLE13=Až bude mistrovství světa v ledním hokeji
TTITLE14=Černá hodinka
TTITLE15=Pojď v moji realitu
TTITLE16=Linda
TTITLE17=Jahody trhala
TTITLE18=Brno je zlatá loď
TTITLE19=Už mou milou rozvádějí
TTITLE20=Medvědi nevědí
TTITLE21=Kráva v mlékárně
TTITLE22=Upírova píseň
TTITLE23=Žába-puk
TTITLE24=Prachovské skály
EXTD=
EXTT0=
EXTT1=
EXTT2=
EXTT3=
EXTT4=
EXTT5=
EXTT6=
EXTT7=
EXTT8=
EXTT9=
EXTT10=
EXTT11=
EXTT12=
EXTT13=
EXTT14=
EXTT15=
EXTT16=
EXTT17=
EXTT18=
EXTT19=
EXTT20=
EXTT21=
EXTT22=
EXTT23=
EXTT24=
PLAYORDER=
